<?xml version="1.0" encoding="utf-8"?>
<!-- Generator: Adobe Illustrator 27.5.0, SVG Export Plug-In . SVG Version: 6.00 Build 0)  -->
<svg version="1.1" id="Layer_1" xmlns="http://www.w3.org/2000/svg" xmlns:xlink="http://www.w3.org/1999/xlink" x="0px" y="0px"
	 viewBox="0 0 2171.729 2446.797" style="enable-background:new 0 0 2171.729 2446.797;" xml:space="preserve">
<g>
	<g>
		<path style="fill:#FCC331;stroke:#AD5A1F;stroke-width:8.3267;stroke-miterlimit:10;" d="M588.276,942.338l320.247-12.641
			l-240.186,244.399H849.53l-240.186,294.965h98.319c0,0-456.491,518.296-456.491,505.655c0-12.642,282.324-425.593,282.324-425.593
			H360.731l244.4-303.393H367.542L588.276,942.338z"/>
		<path style="fill:#FCC331;" d="M528.275,1077.482c33.02-45.391,66.114-90.746,98.407-136.661l-38.405,1.517L367.54,1245.731
			h41.991C447.784,1188.731,487.895,1132.987,528.275,1077.482z"/>
		<path style="fill:#FCC331;" d="M378.795,1549.125c2.188-2.401,4.359-4.819,6.547-7.219
			c53.315-58.514,107.996-116.105,159.068-176.597c21.682-25.675,104.174-111.032,126.191-124.081
			c-22.784-0.411-45.546,1.434-68.2,4.503h2.73l-244.401,303.393H378.795z"/>
		<path style="fill:#FCC331;" d="M278.533,1948.495c10.298-14.051,20.55-28.138,30.87-42.172
			c27.331-37.171,247.025-350.014,268.861-369.871c-22.906,3.002-45.677,7.103-68.093,12.673h23.326
			c0,0-282.323,412.95-282.323,425.592C251.174,1976.597,261.335,1966.659,278.533,1948.495z"/>
		<path style="fill:#FCC331;" d="M668.336,1174.097l240.188-244.399l-111.883,4.416c-10.452,12.553-201.405,255.157-209.375,265.732
			c54.303,3.719,108.871,4.134,163.239,5.59c4.058,0.11-190.952,226.556-242.427,284.622c38.469-0.599,119.147,8.515,117.773,10.76
			c-25.178,41.114-178.144,249.092-225.769,314.481c133.206-148.256,307.579-346.237,307.579-346.237h-98.318l240.186-294.965
			H668.336z"/>
	</g>
	<g>
		<g>
			<path style="fill:#90BADA;" d="M286.703,1700.434c6.476-15.723,10.708-32.548,13.687-49.52
				c2.098-11.955,3.348-24.133,3.933-36.447c1.764-16.942-3.591-82.902-7.08-82.661c-2.079-2.814-55.784,35.851-67.543,48.172
				c-9,8.426-17.466,17.271-25.212,26.616c-10.995,13.267-21.067,27.393-28.845,42.515c-7.066,13.736-11.898,29.363-7.696,46.167
				c2.491,9.959,8.451,20.374,17.073,28.93c0.379,0.399,0.775,0.782,1.168,1.172c0.551,0.52,1.105,1.033,1.677,1.539
				c2.904,2.657,6.137,5.049,9.692,7.115c0.111,0.067,0.209,0.147,0.321,0.212c0.201,0.119,0.412,0.198,0.615,0.314
				c1.327,0.74,2.676,1.446,4.087,2.087c1.402,0.66,2.814,1.228,4.238,1.76c0.22,0.079,0.416,0.188,0.637,0.264
				c0.122,0.043,0.246,0.066,0.37,0.107c3.879,1.368,7.796,2.281,11.7,2.77c0.755,0.109,1.505,0.197,2.259,0.28
				c0.551,0.047,1.101,0.101,1.65,0.131c12.105,1.022,23.899-1.188,33.098-5.745
				C272.048,1728.524,280.819,1714.716,286.703,1700.434z"/>
			<path style="fill:#CFEDFC;" d="M279.404,1677.699c5.077-12.325,8.394-25.513,10.73-38.817c1.644-9.372,2.624-18.917,3.083-28.57
				c1.382-13.28-2.815-64.985-5.551-64.797c-1.63-2.206-43.728,28.103-52.946,37.761c-7.055,6.605-13.692,13.538-19.763,20.864
				c-8.619,10.4-16.514,21.473-22.611,33.326c-5.538,10.767-9.326,23.018-6.033,36.19c1.952,7.806,6.624,15.971,13.383,22.678
				c0.297,0.312,0.608,0.613,0.916,0.918c0.432,0.408,0.865,0.811,1.315,1.207c2.276,2.083,4.81,3.957,7.597,5.578
				c0.087,0.052,0.164,0.115,0.251,0.166c0.157,0.093,0.323,0.156,0.481,0.246c1.041,0.58,2.098,1.133,3.203,1.635
				c1.1,0.517,2.206,0.963,3.322,1.38c0.172,0.063,0.326,0.147,0.5,0.207c0.096,0.033,0.193,0.052,0.29,0.084
				c3.04,1.073,6.11,1.788,9.171,2.172c0.593,0.085,1.18,0.155,1.771,0.219c0.432,0.037,0.863,0.079,1.293,0.103
				c9.488,0.801,18.734-0.932,25.945-4.503C267.917,1699.718,274.793,1688.895,279.404,1677.699z"/>
			<path style="fill:#FFFFFF;" d="M270.296,1637.465c2.668-6.478,4.411-13.409,5.639-20.402c0.864-4.925,1.38-9.942,1.62-15.016
				c0.727-6.98-1.48-34.156-2.918-34.056c-0.856-1.159-22.983,14.771-27.827,19.847c-3.708,3.471-7.196,7.115-10.387,10.966
				c-4.531,5.466-8.68,11.285-11.885,17.516c-2.911,5.66-4.902,12.098-3.171,19.021c1.027,4.103,3.482,8.394,7.035,11.92
				c0.156,0.164,0.32,0.321,0.481,0.482c0.227,0.214,0.456,0.426,0.691,0.634c1.197,1.095,2.528,2.08,3.993,2.932
				c0.045,0.027,0.086,0.061,0.132,0.088c0.083,0.049,0.17,0.082,0.253,0.129c0.547,0.305,1.102,0.596,1.684,0.86
				c0.578,0.271,1.16,0.505,1.746,0.725c0.091,0.033,0.171,0.078,0.262,0.108c0.05,0.018,0.102,0.028,0.152,0.044
				c1.598,0.564,3.212,0.94,4.82,1.142c0.311,0.045,0.62,0.082,0.93,0.116c0.228,0.019,0.454,0.042,0.68,0.054
				c4.987,0.421,9.846-0.49,13.636-2.367C264.259,1649.038,267.872,1643.349,270.296,1637.465z"/>
			<g>
				<path style="fill:#FFFFFF;" d="M218.959,1660.048c-0.734-2.199-2.23-4.04-4.055-5.429c-3.316-2.525-8.064-2.719-11.666-0.745
					c-1.271,0.477-2.458,1.185-3.469,2.067c-1.931,1.686-3.028,4.056-3.432,6.548c-0.788,4.86,2.018,9.848,6.782,11.332
					c5.447,1.696,12.477-1.018,15.15-6.128C219.523,1665.299,219.82,1662.632,218.959,1660.048z"/>
				<path style="fill:#FFFFFF;" d="M207.263,1665.719c-0.006,0.002-0.005,0.002-0.011,0.003c0.009,0.003,0.016,0.006,0.024,0.008
					c0.038,0.005,0.028,0.02,0.091,0.011c0.054,0.013,0.05,0.002,0.075-0.002c0.01-0.003,0.022-0.004,0.033-0.006
					C207.399,1665.729,207.304,1665.712,207.263,1665.719z"/>
				<path style="fill:#FFFFFF;" d="M206.631,1658.634c0.025-0.024,0.06-0.036,0.085-0.061c-0.048,0.026-0.096,0.052-0.142,0.082
					c-0.008,0.005-0.003,0.001-0.009,0.004c-0.005,0.006-0.001,0.002-0.005,0.008c-0.013,0.011-0.024,0.024-0.037,0.036
					c0.022-0.013,0.076-0.048,0.104-0.065C206.629,1658.637,206.629,1658.636,206.631,1658.634z"/>
				<path style="fill:#FFFFFF;" d="M206.513,1658.713c-0.091,0.088-0.178,0.177-0.267,0.268c-0.006,0.01-0.012,0.021-0.019,0.031
					C206.457,1658.802,206.542,1658.706,206.513,1658.713z"/>
			</g>
		</g>
		<g>
			<path style="fill:#90BADA;" d="M854.612,1554.094c6.476-15.723,10.708-32.548,13.687-49.52
				c2.098-11.955,3.348-24.133,3.933-36.446c1.763-16.942-3.591-82.902-7.08-82.662c-2.079-2.814-55.784,35.852-67.544,48.172
				c-9,8.426-17.466,17.271-25.211,26.617c-10.996,13.267-21.067,27.393-28.845,42.515c-7.066,13.736-11.898,29.363-7.696,46.166
				c2.491,9.959,8.45,20.375,17.073,28.931c0.379,0.398,0.775,0.781,1.168,1.171c0.551,0.52,1.104,1.034,1.677,1.539
				c2.904,2.657,6.137,5.049,9.692,7.116c0.111,0.067,0.209,0.147,0.32,0.212c0.201,0.119,0.412,0.199,0.615,0.315
				c1.327,0.739,2.676,1.445,4.087,2.087c1.402,0.659,2.814,1.227,4.238,1.759c0.22,0.08,0.415,0.188,0.637,0.265
				c0.121,0.043,0.246,0.065,0.369,0.107c3.879,1.368,7.796,2.281,11.701,2.77c0.755,0.109,1.505,0.197,2.258,0.281
				c0.552,0.047,1.101,0.101,1.65,0.131c12.105,1.023,23.899-1.188,33.098-5.745
				C839.957,1582.185,848.728,1568.377,854.612,1554.094z"/>
			<path style="fill:#CFEDFC;" d="M847.313,1531.36c5.077-12.325,8.394-25.514,10.729-38.818c1.644-9.371,2.625-18.917,3.083-28.57
				c1.382-13.28-2.815-64.985-5.551-64.796c-1.63-2.206-43.728,28.103-52.946,37.761c-7.055,6.605-13.692,13.538-19.763,20.864
				c-8.619,10.4-16.515,21.473-22.611,33.327c-5.538,10.767-9.326,23.018-6.033,36.189c1.952,7.806,6.624,15.971,13.384,22.678
				c0.297,0.312,0.608,0.613,0.916,0.919c0.432,0.407,0.865,0.81,1.314,1.206c2.277,2.083,4.81,3.958,7.598,5.578
				c0.087,0.052,0.164,0.115,0.252,0.166c0.157,0.094,0.323,0.156,0.481,0.246c1.041,0.58,2.098,1.133,3.203,1.636
				c1.099,0.516,2.206,0.963,3.322,1.38c0.172,0.062,0.326,0.147,0.5,0.206c0.096,0.034,0.193,0.052,0.29,0.084
				c3.04,1.073,6.11,1.789,9.171,2.172c0.593,0.086,1.18,0.155,1.771,0.22c0.432,0.037,0.863,0.079,1.293,0.103
				c9.488,0.801,18.734-0.932,25.945-4.504C835.827,1553.379,842.702,1542.555,847.313,1531.36z"/>
			<path style="fill:#FFFFFF;" d="M838.205,1491.126c2.668-6.478,4.411-13.41,5.639-20.402c0.864-4.925,1.379-9.943,1.62-15.016
				c0.726-6.98-1.48-34.155-2.918-34.056c-0.856-1.16-22.983,14.77-27.827,19.846c-3.708,3.471-7.196,7.116-10.387,10.966
				c-4.531,5.466-8.68,11.286-11.885,17.516c-2.911,5.659-4.902,12.098-3.171,19.02c1.026,4.104,3.482,8.394,7.034,11.92
				c0.156,0.164,0.32,0.322,0.481,0.482c0.227,0.215,0.456,0.426,0.691,0.635c1.197,1.095,2.528,2.08,3.993,2.932
				c0.046,0.027,0.087,0.06,0.132,0.087c0.083,0.049,0.17,0.082,0.253,0.13c0.547,0.305,1.102,0.595,1.684,0.859
				c0.578,0.271,1.16,0.506,1.746,0.725c0.09,0.032,0.171,0.078,0.262,0.109c0.05,0.017,0.102,0.027,0.152,0.044
				c1.598,0.564,3.212,0.94,4.82,1.142c0.311,0.045,0.62,0.081,0.93,0.115c0.228,0.02,0.454,0.042,0.68,0.054
				c4.987,0.421,9.846-0.49,13.636-2.366C832.168,1502.698,835.782,1497.009,838.205,1491.126z"/>
			<g>
				<path style="fill:#FFFFFF;" d="M786.869,1513.708c-0.734-2.199-2.23-4.04-4.055-5.429c-3.316-2.525-8.064-2.718-11.667-0.745
					c-1.271,0.478-2.457,1.185-3.468,2.068c-1.931,1.685-3.028,4.055-3.432,6.547c-0.788,4.86,2.018,9.849,6.782,11.333
					c5.446,1.695,12.477-1.018,15.15-6.129C787.432,1518.959,787.73,1516.292,786.869,1513.708z"/>
				<path style="fill:#FFFFFF;" d="M775.172,1519.378c-0.006,0.002-0.005,0.003-0.011,0.004c0.008,0.003,0.016,0.005,0.024,0.008
					c0.038,0.005,0.028,0.02,0.091,0.012c0.054,0.012,0.05,0.001,0.075-0.003c0.01-0.002,0.022-0.003,0.033-0.006
					C775.309,1519.388,775.213,1519.372,775.172,1519.378z"/>
				<path style="fill:#FFFFFF;" d="M774.54,1512.295c0.025-0.024,0.06-0.037,0.085-0.062c-0.048,0.027-0.096,0.052-0.141,0.082
					c-0.008,0.006-0.003,0.001-0.01,0.005c-0.004,0.005,0,0.002-0.004,0.007c-0.013,0.011-0.024,0.025-0.037,0.036
					c0.022-0.013,0.077-0.048,0.105-0.065C774.537,1512.297,774.538,1512.296,774.54,1512.295z"/>
				<path style="fill:#FFFFFF;" d="M774.422,1512.374c-0.091,0.087-0.179,0.177-0.267,0.268c-0.006,0.009-0.012,0.02-0.019,0.03
					C774.366,1512.462,774.451,1512.366,774.422,1512.374z"/>
			</g>
		</g>
		<g>
			<path style="fill:#90BADA;" d="M417.78,1167.142c4.218-10.242,6.975-21.201,8.915-32.255c1.366-7.787,2.181-15.719,2.562-23.74
				c1.149-11.035-2.339-54-4.612-53.844c-1.354-1.832-36.336,23.353-43.996,31.378c-5.862,5.488-11.377,11.249-16.422,17.337
				c-7.162,8.641-13.722,17.843-18.788,27.693c-4.602,8.947-7.75,19.127-5.014,30.071c1.622,6.487,5.505,13.271,11.121,18.845
				c0.247,0.259,0.505,0.509,0.761,0.763c0.359,0.339,0.719,0.673,1.092,1.002c1.892,1.731,3.997,3.289,6.313,4.635
				c0.073,0.043,0.137,0.096,0.209,0.137c0.131,0.078,0.268,0.13,0.4,0.205c0.865,0.481,1.744,0.942,2.662,1.36
				c0.913,0.429,1.833,0.799,2.76,1.147c0.143,0.051,0.271,0.122,0.415,0.172c0.08,0.028,0.161,0.043,0.241,0.07
				c2.526,0.891,5.078,1.485,7.621,1.804c0.492,0.071,0.981,0.128,1.471,0.182c0.36,0.031,0.717,0.066,1.074,0.086
				c7.885,0.665,15.568-0.774,21.56-3.742C408.235,1185.439,413.948,1176.445,417.78,1167.142z"/>
			<path style="fill:#CFEDFC;" d="M413.028,1152.334c3.306-8.029,5.467-16.62,6.988-25.285c1.071-6.104,1.71-12.322,2.008-18.609
				c0.901-8.651-1.833-42.329-3.615-42.207c-1.061-1.436-28.483,18.306-34.487,24.596c-4.595,4.302-8.918,8.818-12.873,13.59
				c-5.614,6.775-10.757,13.987-14.728,21.708c-3.607,7.014-6.074,14.993-3.929,23.573c1.272,5.084,4.315,10.403,8.717,14.772
				c0.194,0.203,0.396,0.399,0.597,0.598c0.282,0.266,0.564,0.528,0.856,0.786c1.483,1.356,3.133,2.577,4.949,3.633
				c0.057,0.034,0.107,0.075,0.164,0.108c0.103,0.061,0.211,0.102,0.314,0.16c0.678,0.378,1.366,0.739,2.087,1.066
				c0.716,0.336,1.436,0.627,2.163,0.898c0.113,0.041,0.212,0.097,0.326,0.135c0.063,0.022,0.126,0.034,0.188,0.055
				c1.981,0.699,3.981,1.165,5.974,1.415c0.386,0.056,0.769,0.101,1.153,0.143c0.281,0.023,0.562,0.051,0.843,0.067
				c6.18,0.522,12.202-0.607,16.899-2.933C405.545,1166.676,410.023,1159.626,413.028,1152.334z"/>
			<path style="fill:#FFFFFF;" d="M407.094,1126.126c1.738-4.22,2.874-8.735,3.674-13.29c0.563-3.208,0.898-6.476,1.055-9.781
				c0.474-4.546-0.963-22.248-1.9-22.183c-0.558-0.755-14.971,9.621-18.126,12.927c-2.416,2.261-4.688,4.635-6.766,7.143
				c-2.95,3.56-5.653,7.352-7.741,11.409c-1.896,3.686-3.193,7.88-2.066,12.389c0.669,2.673,2.268,5.468,4.582,7.765
				c0.102,0.107,0.208,0.209,0.313,0.314c0.148,0.14,0.297,0.277,0.451,0.413c0.779,0.713,1.647,1.355,2.601,1.909
				c0.029,0.018,0.056,0.04,0.086,0.057c0.054,0.033,0.111,0.053,0.165,0.085c0.356,0.198,0.719,0.388,1.097,0.56
				c0.376,0.177,0.755,0.33,1.137,0.473c0.059,0.021,0.112,0.05,0.171,0.071c0.033,0.011,0.067,0.017,0.099,0.028
				c1.041,0.367,2.092,0.612,3.14,0.743c0.203,0.029,0.404,0.053,0.606,0.075c0.148,0.013,0.296,0.027,0.443,0.036
				c3.248,0.274,6.413-0.319,8.882-1.542C403.162,1133.664,405.515,1129.959,407.094,1126.126z"/>
			<g>
				<path style="fill:#FFFFFF;" d="M373.655,1140.835c-0.478-1.432-1.453-2.631-2.641-3.536c-2.16-1.644-5.253-1.77-7.599-0.485
					c-0.829,0.311-1.601,0.772-2.26,1.346c-1.257,1.098-1.972,2.642-2.235,4.266c-0.514,3.165,1.314,6.415,4.418,7.381
					c3.547,1.105,8.127-0.663,9.868-3.991C374.023,1144.256,374.216,1142.518,373.655,1140.835z"/>
				<path style="fill:#FFFFFF;" d="M366.036,1144.529c-0.004,0.001-0.003,0.003-0.007,0.003c0.005,0.002,0.01,0.003,0.016,0.005
					c0.024,0.003,0.018,0.013,0.059,0.007c0.034,0.008,0.032,0.001,0.048-0.002c0.007-0.002,0.014-0.002,0.021-0.004
					C366.125,1144.536,366.063,1144.525,366.036,1144.529z"/>
				<path style="fill:#FFFFFF;" d="M365.624,1139.915c0.017-0.016,0.039-0.024,0.056-0.04c-0.031,0.017-0.062,0.034-0.092,0.053
					c-0.005,0.003-0.002,0-0.006,0.003c-0.003,0.003-0.001,0.002-0.003,0.005c-0.008,0.007-0.016,0.016-0.024,0.023
					c0.014-0.008,0.05-0.031,0.068-0.042C365.623,1139.917,365.623,1139.916,365.624,1139.915z"/>
				<path style="fill:#FFFFFF;" d="M365.548,1139.967c-0.059,0.057-0.116,0.115-0.174,0.174c-0.004,0.007-0.008,0.013-0.013,0.02
					C365.511,1140.024,365.567,1139.961,365.548,1139.967z"/>
			</g>
		</g>
		<g>
			<path style="fill:#90BADA;" d="M1283.922,1642.888c4.218-10.242,6.975-21.201,8.915-32.255c1.366-7.787,2.181-15.719,2.562-23.74
				c1.148-11.035-2.34-54.001-4.612-53.844c-1.354-1.833-36.336,23.352-43.996,31.379c-5.862,5.488-11.377,11.249-16.422,17.337
				c-7.162,8.642-13.723,17.844-18.789,27.693c-4.603,8.947-7.75,19.127-5.013,30.071c1.622,6.486,5.505,13.271,11.121,18.845
				c0.247,0.259,0.505,0.509,0.761,0.763c0.359,0.338,0.719,0.673,1.092,1.002c1.892,1.731,3.997,3.288,6.313,4.635
				c0.072,0.043,0.136,0.095,0.209,0.137c0.131,0.078,0.268,0.13,0.4,0.205c0.865,0.481,1.744,0.942,2.662,1.36
				c0.914,0.429,1.834,0.799,2.76,1.146c0.143,0.052,0.271,0.122,0.415,0.172c0.08,0.027,0.161,0.042,0.241,0.07
				c2.526,0.891,5.078,1.485,7.621,1.804c0.492,0.071,0.98,0.128,1.471,0.182c0.36,0.031,0.717,0.066,1.074,0.086
				c7.885,0.665,15.568-0.774,21.56-3.742C1274.377,1661.185,1280.09,1652.192,1283.922,1642.888z"/>
			<path style="fill:#CFEDFC;" d="M1279.169,1628.08c3.306-8.029,5.467-16.619,6.988-25.285c1.072-6.104,1.709-12.322,2.008-18.61
				c0.901-8.651-1.833-42.329-3.615-42.207c-1.061-1.436-28.483,18.306-34.487,24.596c-4.596,4.302-8.919,8.818-12.873,13.59
				c-5.614,6.775-10.756,13.987-14.728,21.708c-3.607,7.014-6.074,14.993-3.929,23.573c1.271,5.084,4.315,10.403,8.717,14.772
				c0.194,0.203,0.396,0.399,0.597,0.598c0.281,0.266,0.564,0.528,0.856,0.786c1.483,1.356,3.133,2.577,4.949,3.633
				c0.057,0.034,0.107,0.075,0.164,0.108c0.103,0.061,0.211,0.101,0.314,0.16c0.678,0.378,1.367,0.739,2.087,1.066
				c0.716,0.336,1.436,0.627,2.163,0.898c0.113,0.041,0.213,0.097,0.326,0.135c0.062,0.023,0.126,0.033,0.188,0.055
				c1.981,0.699,3.98,1.165,5.974,1.415c0.386,0.056,0.769,0.101,1.153,0.142c0.281,0.024,0.562,0.052,0.842,0.067
				c6.181,0.522,12.203-0.607,16.9-2.933C1271.687,1642.422,1276.165,1635.372,1279.169,1628.08z"/>
			<path style="fill:#FFFFFF;" d="M1273.236,1601.872c1.738-4.22,2.874-8.735,3.674-13.29c0.563-3.208,0.898-6.477,1.055-9.781
				c0.474-4.546-0.963-22.248-1.9-22.183c-0.558-0.755-14.971,9.621-18.127,12.927c-2.415,2.262-4.687,4.635-6.766,7.143
				c-2.951,3.561-5.654,7.352-7.74,11.409c-1.897,3.686-3.193,7.88-2.066,12.389c0.669,2.673,2.268,5.468,4.582,7.764
				c0.102,0.107,0.208,0.21,0.313,0.315c0.148,0.14,0.296,0.277,0.45,0.413c0.779,0.713,1.647,1.355,2.601,1.909
				c0.029,0.018,0.056,0.039,0.086,0.057c0.054,0.032,0.111,0.053,0.165,0.085c0.356,0.198,0.718,0.388,1.097,0.56
				c0.376,0.177,0.755,0.33,1.138,0.472c0.059,0.022,0.111,0.051,0.171,0.072c0.032,0.011,0.067,0.017,0.099,0.028
				c1.041,0.367,2.092,0.612,3.14,0.744c0.202,0.029,0.404,0.053,0.606,0.075c0.148,0.012,0.296,0.027,0.443,0.036
				c3.248,0.274,6.413-0.319,8.882-1.542C1269.304,1609.411,1271.657,1605.705,1273.236,1601.872z"/>
			<g>
				<path style="fill:#FFFFFF;" d="M1239.796,1616.582c-0.477-1.432-1.452-2.631-2.64-3.536c-2.16-1.645-5.253-1.77-7.6-0.485
					c-0.828,0.312-1.6,0.772-2.259,1.346c-1.257,1.098-1.972,2.642-2.235,4.265c-0.514,3.166,1.314,6.416,4.417,7.382
					c3.548,1.105,8.128-0.663,9.869-3.991C1240.164,1620.002,1240.357,1618.264,1239.796,1616.582z"/>
				<path style="fill:#FFFFFF;" d="M1232.178,1620.275c-0.004,0.001-0.003,0.002-0.007,0.003c0.005,0.002,0.01,0.003,0.016,0.005
					c0.024,0.003,0.018,0.013,0.058,0.007c0.035,0.008,0.032,0.001,0.049-0.002c0.007-0.002,0.014-0.002,0.021-0.004
					C1232.266,1620.282,1232.205,1620.271,1232.178,1620.275z"/>
				<path style="fill:#FFFFFF;" d="M1231.766,1615.661c0.017-0.016,0.039-0.024,0.056-0.04c-0.032,0.017-0.063,0.034-0.093,0.053
					c-0.005,0.003-0.002,0-0.006,0.002c-0.003,0.003-0.001,0.001-0.003,0.005c-0.009,0.007-0.016,0.016-0.024,0.023
					c0.014-0.008,0.05-0.031,0.068-0.042C1231.765,1615.663,1231.765,1615.662,1231.766,1615.661z"/>
				<path style="fill:#FFFFFF;" d="M1231.689,1615.713c-0.059,0.057-0.117,0.115-0.174,0.174c-0.004,0.007-0.008,0.013-0.012,0.02
					C1231.653,1615.771,1231.708,1615.707,1231.689,1615.713z"/>
			</g>
		</g>
		<g>
			<path style="fill:#90BADA;" d="M985.779,1941.49c6.476-15.723,10.708-32.548,13.688-49.52
				c2.098-11.955,3.347-24.133,3.932-36.447c1.764-16.942-3.59-82.902-7.08-82.661c-2.078-2.814-55.784,35.851-67.543,48.172
				c-9,8.426-17.466,17.271-25.211,26.617c-10.996,13.267-21.068,27.393-28.846,42.515c-7.066,13.736-11.898,29.364-7.696,46.167
				c2.49,9.959,8.451,20.374,17.073,28.93c0.379,0.399,0.776,0.782,1.169,1.172c0.551,0.52,1.104,1.033,1.677,1.539
				c2.904,2.657,6.136,5.048,9.692,7.115c0.112,0.067,0.21,0.147,0.321,0.212c0.201,0.119,0.411,0.198,0.614,0.314
				c1.328,0.739,2.676,1.446,4.087,2.087c1.403,0.659,2.814,1.228,4.237,1.76c0.22,0.079,0.416,0.188,0.637,0.264
				c0.122,0.043,0.247,0.066,0.37,0.107c3.879,1.368,7.795,2.281,11.7,2.77c0.756,0.109,1.505,0.197,2.259,0.28
				c0.552,0.047,1.101,0.101,1.65,0.132c12.104,1.022,23.899-1.188,33.098-5.745C971.124,1969.58,979.896,1955.772,985.779,1941.49z
				"/>
			<path style="fill:#CFEDFC;" d="M978.481,1918.755c5.076-12.325,8.393-25.513,10.729-38.817c1.645-9.372,2.625-18.918,3.083-28.57
				c1.383-13.28-2.815-64.985-5.551-64.797c-1.63-2.206-43.728,28.103-52.946,37.761c-7.055,6.605-13.691,13.538-19.763,20.864
				c-8.619,10.4-16.514,21.473-22.611,33.326c-5.539,10.767-9.327,23.018-6.034,36.19c1.953,7.806,6.625,15.971,13.384,22.678
				c0.297,0.312,0.608,0.613,0.916,0.918c0.432,0.408,0.866,0.811,1.315,1.207c2.276,2.083,4.81,3.958,7.597,5.578
				c0.087,0.052,0.164,0.115,0.252,0.166c0.158,0.093,0.323,0.156,0.481,0.246c1.041,0.579,2.098,1.133,3.204,1.635
				c1.099,0.517,2.206,0.963,3.322,1.38c0.172,0.062,0.326,0.147,0.499,0.207c0.096,0.033,0.194,0.052,0.29,0.084
				c3.04,1.073,6.111,1.788,9.172,2.172c0.592,0.085,1.18,0.155,1.77,0.219c0.433,0.037,0.863,0.079,1.293,0.103
				c9.488,0.801,18.734-0.932,25.945-4.503C966.994,1940.774,973.869,1929.951,978.481,1918.755z"/>
			<path style="fill:#FFFFFF;" d="M969.373,1878.521c2.668-6.478,4.412-13.409,5.639-20.402c0.864-4.925,1.38-9.942,1.62-15.016
				c0.727-6.979-1.48-34.155-2.917-34.056c-0.857-1.159-22.984,14.771-27.828,19.847c-3.708,3.472-7.196,7.115-10.387,10.966
				c-4.53,5.466-8.68,11.285-11.884,17.515c-2.911,5.66-4.902,12.098-3.171,19.021c1.026,4.103,3.481,8.394,7.034,11.92
				c0.156,0.164,0.32,0.321,0.481,0.482c0.227,0.214,0.456,0.426,0.691,0.634c1.197,1.095,2.529,2.08,3.994,2.932
				c0.046,0.027,0.086,0.061,0.132,0.087c0.082,0.049,0.169,0.082,0.252,0.129c0.547,0.305,1.103,0.596,1.685,0.86
				c0.577,0.271,1.159,0.505,1.745,0.725c0.091,0.032,0.172,0.077,0.262,0.108c0.051,0.018,0.101,0.027,0.152,0.044
				c1.598,0.564,3.212,0.94,4.82,1.142c0.311,0.045,0.62,0.082,0.931,0.116c0.227,0.019,0.453,0.042,0.679,0.054
				c4.987,0.421,9.846-0.49,13.637-2.367C963.335,1890.094,966.949,1884.406,969.373,1878.521z"/>
			<g>
				<path style="fill:#FFFFFF;" d="M918.036,1901.104c-0.734-2.199-2.23-4.04-4.055-5.429c-3.315-2.525-8.063-2.719-11.666-0.745
					c-1.271,0.477-2.458,1.185-3.469,2.067c-1.93,1.686-3.028,4.056-3.432,6.548c-0.789,4.859,2.018,9.848,6.783,11.332
					c5.447,1.696,12.477-1.018,15.15-6.128C918.599,1906.355,918.897,1903.688,918.036,1901.104z"/>
				<path style="fill:#FFFFFF;" d="M906.34,1906.775c-0.007,0.002-0.005,0.003-0.011,0.003c0.008,0.003,0.015,0.006,0.024,0.008
					c0.037,0.005,0.028,0.02,0.091,0.011c0.053,0.012,0.049,0.002,0.075-0.003c0.009-0.002,0.021-0.004,0.032-0.006
					C906.476,1906.785,906.38,1906.768,906.34,1906.775z"/>
				<path style="fill:#FFFFFF;" d="M905.707,1899.69c0.025-0.024,0.06-0.037,0.085-0.061c-0.047,0.026-0.096,0.052-0.141,0.082
					c-0.008,0.005-0.003,0.001-0.009,0.004c-0.004,0.006-0.001,0.002-0.005,0.007c-0.013,0.011-0.024,0.024-0.037,0.037
					c0.022-0.013,0.076-0.048,0.104-0.065C905.705,1899.693,905.706,1899.692,905.707,1899.69z"/>
				<path style="fill:#FFFFFF;" d="M905.59,1899.769c-0.092,0.088-0.179,0.177-0.268,0.268c-0.006,0.01-0.012,0.021-0.019,0.031
					C905.533,1899.858,905.618,1899.762,905.59,1899.769z"/>
			</g>
		</g>
		<g>
			<path style="fill:#90BADA;" d="M1931.972,1606.771c6.476-15.723,10.707-32.548,13.687-49.52
				c2.098-11.955,3.348-24.133,3.933-36.446c1.764-16.942-3.591-82.902-7.081-82.662c-2.078-2.814-55.783,35.852-67.543,48.172
				c-9,8.426-17.465,17.271-25.211,26.617c-10.995,13.267-21.067,27.393-28.845,42.515c-7.066,13.736-11.898,29.363-7.697,46.167
				c2.49,9.958,8.451,20.374,17.074,28.93c0.379,0.398,0.775,0.782,1.168,1.171c0.551,0.52,1.104,1.034,1.677,1.539
				c2.904,2.657,6.137,5.048,9.692,7.116c0.111,0.067,0.209,0.147,0.321,0.212c0.201,0.119,0.412,0.199,0.614,0.315
				c1.327,0.739,2.676,1.446,4.087,2.087c1.402,0.659,2.814,1.227,4.237,1.76c0.22,0.079,0.416,0.187,0.637,0.264
				c0.122,0.042,0.246,0.065,0.369,0.107c3.879,1.368,7.795,2.281,11.701,2.77c0.755,0.109,1.505,0.197,2.258,0.281
				c0.552,0.047,1.101,0.101,1.65,0.131c12.105,1.022,23.899-1.188,33.098-5.745
				C1917.318,1634.861,1926.088,1621.054,1931.972,1606.771z"/>
			<path style="fill:#CFEDFC;" d="M1924.674,1584.036c5.076-12.325,8.394-25.514,10.729-38.818
				c1.645-9.371,2.625-18.917,3.083-28.57c1.383-13.28-2.814-64.985-5.55-64.796c-1.63-2.206-43.728,28.103-52.946,37.761
				c-7.055,6.605-13.692,13.538-19.763,20.865c-8.619,10.399-16.514,21.473-22.611,33.326c-5.539,10.767-9.327,23.018-6.033,36.189
				c1.952,7.806,6.624,15.971,13.384,22.678c0.296,0.312,0.608,0.613,0.916,0.918c0.432,0.407,0.865,0.81,1.314,1.206
				c2.276,2.083,4.81,3.958,7.598,5.578c0.087,0.052,0.163,0.115,0.252,0.166c0.157,0.094,0.322,0.156,0.481,0.246
				c1.04,0.579,2.097,1.133,3.203,1.636c1.099,0.516,2.206,0.963,3.322,1.38c0.172,0.062,0.326,0.147,0.5,0.207
				c0.096,0.034,0.193,0.052,0.29,0.084c3.04,1.072,6.11,1.788,9.171,2.172c0.592,0.086,1.18,0.155,1.77,0.22
				c0.433,0.037,0.864,0.079,1.294,0.103c9.488,0.801,18.734-0.932,25.945-4.504
				C1913.187,1606.056,1920.062,1595.232,1924.674,1584.036z"/>
			<path style="fill:#FFFFFF;" d="M1915.566,1543.802c2.668-6.478,4.412-13.41,5.639-20.402c0.864-4.925,1.379-9.943,1.62-15.016
				c0.726-6.98-1.48-34.156-2.918-34.057c-0.856-1.16-22.983,14.77-27.827,19.846c-3.709,3.472-7.196,7.116-10.388,10.966
				c-4.53,5.466-8.679,11.286-11.884,17.516c-2.911,5.659-4.902,12.098-3.171,19.021c1.026,4.103,3.481,8.393,7.035,11.919
				c0.156,0.164,0.32,0.322,0.481,0.483c0.227,0.214,0.455,0.425,0.691,0.634c1.197,1.095,2.528,2.08,3.993,2.932
				c0.046,0.027,0.087,0.06,0.132,0.087c0.083,0.049,0.17,0.082,0.253,0.13c0.547,0.305,1.103,0.595,1.684,0.859
				c0.578,0.271,1.159,0.506,1.746,0.725c0.09,0.032,0.172,0.077,0.262,0.109c0.05,0.018,0.101,0.027,0.152,0.044
				c1.598,0.564,3.212,0.94,4.82,1.142c0.312,0.045,0.62,0.081,0.93,0.115c0.227,0.02,0.454,0.042,0.68,0.054
				c4.987,0.421,9.846-0.49,13.636-2.366C1909.528,1555.375,1913.142,1549.686,1915.566,1543.802z"/>
			<g>
				<path style="fill:#FFFFFF;" d="M1864.229,1566.385c-0.733-2.199-2.23-4.039-4.055-5.429c-3.316-2.525-8.064-2.718-11.667-0.745
					c-1.271,0.478-2.458,1.185-3.469,2.068c-1.93,1.686-3.027,4.056-3.431,6.547c-0.789,4.86,2.017,9.849,6.782,11.333
					c5.446,1.696,12.477-1.018,15.15-6.128C1864.793,1571.635,1865.09,1568.968,1864.229,1566.385z"/>
				<path style="fill:#FFFFFF;" d="M1852.532,1572.055c-0.006,0.002-0.005,0.003-0.011,0.004c0.008,0.003,0.016,0.005,0.024,0.007
					c0.038,0.005,0.028,0.02,0.091,0.012c0.053,0.012,0.05,0.001,0.075-0.003c0.01-0.002,0.022-0.003,0.032-0.006
					C1852.669,1572.065,1852.573,1572.048,1852.532,1572.055z"/>
				<path style="fill:#FFFFFF;" d="M1851.9,1564.971c0.025-0.024,0.06-0.036,0.085-0.062c-0.048,0.027-0.097,0.052-0.142,0.082
					c-0.008,0.006-0.003,0.001-0.01,0.005c-0.004,0.005,0,0.002-0.005,0.007c-0.012,0.011-0.023,0.025-0.037,0.037
					c0.023-0.012,0.077-0.048,0.105-0.065C1851.898,1564.974,1851.899,1564.972,1851.9,1564.971z"/>
				<path style="fill:#FFFFFF;" d="M1851.782,1565.051c-0.091,0.088-0.179,0.177-0.267,0.268c-0.007,0.01-0.013,0.02-0.019,0.031
					C1851.726,1565.139,1851.811,1565.042,1851.782,1565.051z"/>
			</g>
		</g>
		<g>
			<g>
				<path style="fill:#4C5358;" d="M2125.076,513.944c-46.81-148.879-203.101-222.916-349.779-231.876
					c-42.527-2.597-85.552,0.762-127.233,9.439c-4.856,1.01-9.634,2.208-14.388,3.464c-4.911,1.296-10.005-1.143-12.109-5.768
					c-1.617-3.555-3.253-7.067-4.908-10.515c-17.118-35.694-40.292-69.098-66.518-98.69
					c-53.55-60.429-124.335-104.901-201.972-126.899c-150.627-42.679-313.621-0.539-425.618,105.315
					c-3.214,3.038-7.919,3.66-11.839,1.611c-8.117-4.243-16.454-8.05-24.97-11.319c-35.096-13.471-72.026-22.009-109.443-25.451
					c-71.643-6.59-144.568,2.045-212.62,25.397c-137.17,47.066-247.772,155.214-282.944,297.75
					c-5.069,20.54-8.633,41.957-10.346,63.625c-0.309,3.908-2.793,7.244-6.445,8.669c-3.712,1.448-7.392,2.949-11.03,4.502
					c-44.341,18.912-84.537,47.293-118.179,81.771C66.801,674.591,28.242,768.511,32.965,866.122
					c4.562,94.278,48.241,186.45,116.299,251.509c70.139,67.044,163.4,99.327,259.827,95.522
					c47.02-1.854,94.345-12.46,137.653-31.236c3.939-1.708,8.419-0.807,11.414,2.271c17.926,18.426,38.545,34.575,61.87,47.79
					c51.528,29.196,120.076,43.939,182.809,35.23c3.159-0.438,6.285,0.601,8.536,2.86c20.976,21.059,44.078,39.779,68.796,56.589
					c67.946,46.198,147.936,74.643,229.523,83.715c164.959,18.342,327.269-48.704,434.972-174.341
					c2.174-2.536,4.309-5.148,6.457-7.737c50.526,33.461,120.671,38.092,178.697,30.628c68.802-8.848,135.378-35.825,193.271-73.634
					c104.006-67.93,192.786-187.3,165.403-317.774c-4.427-21.097-11.512-40.54-20.987-58.252c-1.988-3.718-1.555-8.142,1.144-11.381
					c21.207-25.452,38.038-54.803,49.732-84.139C2143.858,649.824,2145.674,579.452,2125.076,513.944z"/>
				<path style="fill:#A4B0B7;" d="M2095.927,683.178c-9.01,31.788-23.79,59.279-42.325,84.076
					c-3.747,5.013-11.282,5.487-15.554,0.912c-13.079-14.004-28.374-26.178-45.75-36.407c15.485,22.917,31.026,45.831,41.879,71.397
					c5.79,13.636,10.164,27.496,13.329,41.571c1.923,6.272,3.588,12.55,4.98,18.773c11.969,53.472,5.696,107.028-17.442,156.546
					c-48.777,104.394-164.714,176.687-275.057,198.387c-34.264,6.739-69.438,9.378-104.195,5.297
					c-24.589-2.89-47.53-9.969-70.256-18.406c-6.422-2.385-8.804-10.1-4.876-15.713c32.806-46.892,59.238-99.901,71.805-155.196
					c-7.308,13.693-14.784,27.296-22.745,40.625c-23.049,38.589-50.783,72.775-79.661,107.061c-1.862,2.212-3.752,4.423-5.629,6.636
					c-1.016,1.371-1.914,2.791-2.95,4.153c-43.574,57.359-100.621,104.865-164.959,137.27
					c-136.566,68.779-299.208,59.055-433.182-11.06c-28.546-14.941-54.947-32.805-79.752-53.001
					c-5.87-4.78-4.566-14.072,2.294-17.271c8.822-4.113,17.309-8.873,25.328-14.399c5.143-3.544,7.736-9.91,7.302-15.034
					c-21.821,6.287-44.023,11.217-66.585,14.37c-21.67,3.028-45.768,6.6-67.557,2.224c-1.991-0.027-3.963,0-5.976-0.094
					c-43.143-2.057-85.289-14.215-122.611-36.018c-17.905-10.463-34.772-23.103-50.364-37.351c0.57-0.325,1.133-0.689,1.705-1.019
					c-8.401-6.29-16.649-12.719-24.607-19.301c-5.949-4.919-11.699-10.024-17.277-15.294
					c-43.939,35.934,23.891-19.538-20.048,16.395c0.252,0.38,0.505,0.759,0.758,1.138c3.836,5.726,1.485,13.631-5.056,15.803
					c-24.648,8.181-50.042,13.979-75.977,16.89c-85.661,9.616-174.156-12.655-242.022-66.646
					C136.111,1057.36,89.217,979.4,74.477,895.246c-15.222-86.908,6.936-172.123,60.01-242.209
					c22.32-29.475,49.723-54.132,80.138-74.684c0.173-0.117,0.341-0.243,0.501-0.378c43.194-36.203,94.274-61.033,148.822-76.702
					c-2.928-0.234-5.858-0.389-8.802-0.328c-12.107,0.255-24.195,0.783-36.201,2.464c-2.272,0.318-4.537,0.693-6.796,1.112
					c-6.954,1.291-13.02-4.664-12.052-11.67c1.054-7.626,2.346-15.256,3.984-22.889c13.587-63.296,43.043-124.328,86.556-172.499
					c88.199-97.637,221.632-146.129,352.01-140.38c39.81,1.757,80.431,7.504,118.506,19.492c11.011,3.468,21.954,7.4,32.793,11.578
					c-3.466,3.963-7.077,7.767-10.412,11.872c-28.4,34.967-51.014,75.279-67.283,117.241c-7.999,20.635-14.28,41.778-18.533,63.499
					c-1.43,7.303-2.198,14.516-2.755,21.704c1.766-5.233,3.529-10.465,5.559-15.656c25.346-64.886,60.538-124.393,107.392-176.089
					c20.665-22.802,43.756-43.079,69.146-59.737c27.576-20.356,57.657-37.296,89.938-49.797
					c148.81-57.614,320.318-22.848,434.913,87.606c30.139,29.053,55.838,61.919,76.557,98.293c2.015,3.537,3.958,7.109,5.86,10.702
					c2.909,5.497,0.214,12.206-5.615,14.377c-18.785,6.997-37.293,14.842-55.751,23.218c-2.13,0.965-3.565,2.895-4.387,4.952
					c7.006-1.791,13.884-4.056,20.761-6.369c12.584-4.232,25.45-7.606,38.519-9.945c23.887-4.273,48.268-7.959,72.519-9.537
					c27.13-3.14,54.365-4.315,80.77-3.496c71.199,2.215,141.033,17.444,205.279,48.614
					c61.016,29.602,112.474,74.741,141.888,136.574C2105.816,553.994,2113.476,621.269,2095.927,683.178z"/>
				<path style="opacity:0.56;fill:#A4B0B7;" d="M2053.603,767.254c18.534-24.798,33.315-52.288,42.323-84.077
					c17.55-61.909,9.892-129.184-17.613-186.997c-29.417-61.834-80.874-106.973-141.891-136.574
					c-64.246-31.17-134.077-46.399-205.278-48.614c-26.407-0.819-53.642,0.355-80.77,3.496c-24.253,1.578-48.632,5.264-72.52,9.539
					c-13.068,2.336-25.935,5.71-38.519,9.943c-6.877,2.316-13.754,4.579-20.76,6.369c0.823-2.058,2.257-3.987,4.387-4.952
					c18.457-8.374,36.966-16.221,55.75-23.217c5.829-2.172,8.523-8.878,5.614-14.376c-1.9-3.592-3.845-7.167-5.86-10.705
					c-20.717-36.374-46.417-69.24-76.555-98.292c-114.595-110.453-286.103-145.219-434.914-87.606
					c-32.28,12.501-62.362,29.44-89.936,49.796c-25.39,16.658-48.483,36.936-69.146,59.738
					c-42.819,47.242-75.797,101.065-100.522,159.498c15.04-21.973,32.603-42.254,52.553-60.135
					c46.884-42.023,104.303-71.528,164.827-88.279c60.96-16.873,125.543-21.054,188.053-11.169
					c60.035,9.497,118.113,32.945,165.427,71.488c40.043,32.62,69.595,75.46,88.09,123.139
					c31.539-17.608,65.777-30.363,101.057-38.246c52.957-11.833,108.08-13.38,161.659-4.936
					c50.868,8.016,101.17,25.556,143.928,54.63c40.246,27.366,72.878,64.975,90.519,110.627
					c20.226,52.343,17.834,110.053,3.149,163.462c-1.279,4.653-6.986,5.866-10.386,2.741c-37.68-34.64-90.244-38.836-140.11-39.174
					c34.998,15.708,66.407,39.364,84.181,74.292c38.117,74.898,3.85,165.299-38.815,230.323
					c-25.179,38.372-56.202,73.238-91.701,102.351c-32.177,26.392-68.536,48.939-108.706,60.744
					c-5.024,1.478-10.058-4.576-7.016-9.126c16.152-24.177,29.552-50.219,36.809-78.496
					c19.519-76.072-14.634-145.462-60.329-204.272c-3.302,13.991-7.375,27.778-12.161,41.192
					c-25.353,71.051-68.482,135.906-121.185,189.614c-46.886,47.779-102.154,86.26-165.926,107.533
					c-62.668,20.902-131.449,30.078-197.357,25.198c-62.367-4.618-129.343-23.859-167.047-77.421
					c-1.775-2.523-0.668-7.213,2.23-8.503c37.664-16.766,64.745-53.247,82.476-89.304c5.406-10.993,10.248-22.961,14.115-35.322
					c-12.909,17.859-27.896,34.277-44.885,48.613c-42.158,35.576-94.233,58.559-148.9,65.86c-23.321,3.116-47.361,1.805-70.7-0.583
					c-26.342-2.693-52.707-7.392-77.857-15.818c-22.665-7.593-45.671-18.308-62.474-35.768
					c-7.674-7.973-16.076-17.903-21.152-27.792c-3.321-6.464-1.154-11.367,3.735-16.091c9.521-9.203,15.995-19.738,23.096-30.87
					c0.232-0.364,0.465-0.729,0.698-1.091c-43.294,46.601-97.237,83.478-156.734,105.524
					c-84.42,31.281-181.226,29.38-258.015-20.942c-39.705-26.018-74.929-63.924-96.164-106.548
					c-18.498-37.136-25.436-79.12-23.839-120.363c3.354-86.708,41.352-174.112,102.272-235.878
					c29.177-29.583,64.73-53.575,104.664-65.815c34.481-10.571,70.836-11.139,105.646-3.004c-1.737-2.385-3.595-4.642-5.76-6.466
					c-4.204-3.535-9.333-6.15-14.13-8.775c-9.895-5.413-20.414-10.125-29.378-17.058c-6.801-5.258-10.02-11.691-11.53-20.089
					c-5.979-33.282,17.617-65.772,38.035-89.469c24.034-27.893,52.843-52.382,83.419-72.839
					c39.79-26.621,87.934-36.204,135.234-37.45c56.885-1.502,113.568,8.177,170.432,3.083c4.862-0.434,7.522,5.552,5.366,9.351
					c-29.318,51.672-51.689,113.7-51.836,174.569c7.664-24.85,18.505-48.498,31.807-70.673c0.303-2.006,0.549-4.005,0.943-6.026
					c4.251-21.721,10.534-42.864,18.533-63.499c16.269-41.964,38.883-82.275,67.283-117.241c3.335-4.105,6.945-7.91,10.411-11.872
					c-10.838-4.178-21.783-8.111-32.794-11.579c-38.072-11.988-78.694-17.734-118.506-19.491
					c-130.376-5.75-263.81,42.743-352.007,140.38c-43.514,48.17-72.97,109.204-86.557,172.499
					c-1.639,7.634-2.931,15.262-3.984,22.89c-0.969,7.005,5.098,12.959,12.052,11.669c2.257-0.421,4.524-0.795,6.796-1.113
					c12.006-1.681,24.095-2.209,36.201-2.464c2.943-0.061,5.874,0.094,8.802,0.327c-54.548,15.672-105.629,40.5-148.822,76.704
					c-0.16,0.134-0.328,0.261-0.502,0.376c-30.415,20.554-57.817,45.209-80.136,74.683c-53.075,70.087-75.233,155.302-60.011,242.21
					c14.741,84.154,61.634,162.113,128.416,215.246c67.866,53.99,156.361,76.261,242.022,66.646
					c25.934-2.91,51.327-8.708,75.977-16.888c6.54-2.172,8.891-10.078,5.054-15.802c-0.253-0.38-0.506-0.759-0.759-1.14
					c2.202-1.8,3.929-3.212,5.597-4.577c0.08-0.065,0.205-0.167,0.296-0.242c2.261-1.848,4.152-3.394,5.534-4.524
					c-0.17,0.14-0.338,0.276-0.509,0.417c0.974-0.798,1.982-1.62,3.239-2.65c0.092-0.072,0.217-0.176,0.296-0.243
					c1.67-1.362,3.396-2.776,5.597-4.576c5.578,5.269,11.328,10.374,17.278,15.293c7.959,6.581,16.206,13.011,24.607,19.301
					c-0.574,0.331-1.135,0.694-1.705,1.019c15.593,14.249,32.459,26.889,50.364,37.35c37.32,21.804,79.469,33.962,122.611,36.019
					c2.012,0.094,3.984,0.067,5.974,0.094c21.792,4.376,45.889,0.804,67.559-2.224c22.562-3.152,44.764-8.083,66.586-14.369
					c0.434,5.124-2.161,11.49-7.303,15.034c-8.019,5.528-16.506,10.288-25.329,14.4c-6.859,3.198-8.163,12.492-2.294,17.271
					c24.805,20.198,51.208,38.061,79.754,53.001c133.974,70.114,296.615,79.839,433.182,11.06
					c64.337-32.405,121.386-79.911,164.96-137.27c1.035-1.362,1.933-2.782,2.949-4.153c1.878-2.212,3.769-4.424,5.628-6.636
					c28.88-34.286,56.612-68.473,79.663-107.061c7.962-13.328,15.438-26.931,22.745-40.624
					c-12.568,55.296-38.998,108.305-71.804,155.197c-3.929,5.613-1.548,13.328,4.875,15.713
					c22.726,8.438,45.668,15.517,70.257,18.405c34.757,4.081,69.929,1.441,104.194-5.297
					c110.344-21.701,226.28-93.993,275.057-198.387c23.136-49.518,29.411-103.075,17.441-156.546
					c-1.393-6.223-3.056-12.501-4.979-18.773c-3.165-14.076-7.54-27.935-13.33-41.571c-10.853-25.566-26.394-48.48-41.88-71.398
					c17.376,10.232,32.672,22.405,45.75,36.408C2042.32,772.741,2049.855,772.267,2053.603,767.254z"/>
				<path style="opacity:0.56;fill:#A4B0B7;" d="M2053.603,767.254c18.534-24.798,33.315-52.288,42.323-84.077
					c17.55-61.909,9.892-129.184-17.613-186.997c-29.417-61.834-80.874-106.973-141.891-136.574
					c-0.033-0.016-0.067-0.031-0.098-0.046c37.04,34.99,68.516,75.709,89.852,122.141c36.316,79.041,38.06,166.873,12.122,249.31
					c-1.196,3.805-5.561,5.798-9.127,3.714c-23.43-13.688-48.274-25.668-74.268-33.728c12.481,32.163,22.357,65.287,27.677,99.38
					c8.32,53.329,5.336,108.495-14.548,159.063c-17.885,45.482-47.284,83.592-84.667,114.759
					c-37.143,30.97-80.028,55.559-125.805,71.255c-42.241,14.483-88.67,21.464-132.643,10.989c-3.136-0.748-5.378-4.538-4.341-7.645
					c13.941-41.708,29.249-83.094,37.701-126.38c2.665-13.648,4.536-27.726,5.35-41.841
					c-19.647,36.838-42.664,71.849-69.434,104.073c-84.772,102.036-203.467,173.873-334.014,198.714
					c-60.051,11.427-123.68,15.318-184.62,10.36c-60.037-4.884-125.603-20.709-166.167-68.698c-2.133-2.525-2.567-6.323,0-8.787
					c18.873-18.126,32.001-40.476,44.991-62.921c-10.429,6.731-21.177,12.957-32.266,18.54
					c-72.192,36.346-157.52,45.782-232.821,12.884c-33.942-14.829-64.553-39.948-82.652-72.591
					c-5.365-9.675-9.236-19.844-11.929-30.234c-34.734,23.762-72.029,43.169-113.987,53.399
					c-81.452,19.858-176.001,9.931-248.528-33.199c-57.514-34.201-100.776-86.557-121.912-150.16
					c-20.609-62.021-20.341-129.263-10.107-193.213c4.588-28.673,11.368-56.947,19.764-84.75
					c-42.406,65.8-59.206,142.816-45.467,221.253c14.741,84.154,61.634,162.113,128.416,215.246
					c67.866,53.99,156.361,76.261,242.022,66.646c25.934-2.91,51.327-8.708,75.977-16.888c6.54-2.172,8.891-10.078,5.054-15.802
					c-0.253-0.38-0.506-0.759-0.759-1.14c2.202-1.8,3.929-3.212,5.597-4.577c0.08-0.065,0.205-0.167,0.296-0.242
					c2.261-1.848,4.152-3.394,5.534-4.524c-0.17,0.14-0.338,0.276-0.509,0.417c0.974-0.798,1.982-1.62,3.239-2.65
					c0.092-0.072,0.217-0.176,0.296-0.243c1.67-1.362,3.396-2.776,5.597-4.576c5.578,5.269,11.328,10.374,17.278,15.293
					c7.959,6.581,16.206,13.011,24.607,19.301c-0.574,0.331-1.135,0.694-1.705,1.019c15.593,14.249,32.459,26.889,50.364,37.35
					c37.32,21.804,79.469,33.962,122.611,36.019c2.012,0.094,3.984,0.067,5.974,0.094c21.792,4.376,45.889,0.804,67.559-2.224
					c22.562-3.152,44.764-8.083,66.586-14.369c0.434,5.124-2.161,11.49-7.303,15.034c-8.019,5.528-16.506,10.288-25.329,14.4
					c-6.859,3.198-8.163,12.492-2.294,17.271c24.805,20.198,51.208,38.061,79.754,53.001
					c133.974,70.114,296.615,79.839,433.182,11.06c64.337-32.405,121.386-79.911,164.96-137.27c1.035-1.362,1.933-2.782,2.949-4.153
					c1.878-2.212,3.769-4.424,5.628-6.636c28.88-34.286,56.612-68.473,79.663-107.061c7.962-13.328,15.438-26.931,22.745-40.624
					c-12.568,55.296-38.998,108.305-71.804,155.197c-3.929,5.613-1.548,13.328,4.875,15.713
					c22.726,8.438,45.668,15.517,70.257,18.405c34.757,4.081,69.929,1.441,104.194-5.297
					c110.344-21.701,226.28-93.993,275.057-198.387c23.136-49.518,29.411-103.075,17.441-156.546
					c-1.393-6.223-3.056-12.501-4.979-18.773c-3.165-14.076-7.54-27.935-13.33-41.571c-10.853-25.566-26.394-48.48-41.88-71.398
					c17.376,10.232,32.672,22.405,45.75,36.408C2042.32,772.741,2049.855,772.267,2053.603,767.254z"/>
			</g>
			<path style="opacity:0.55;fill:#A4B0B7;" d="M578.553,588.754c-14.596-12.608-32.878-21.741-52.172-27.494
				c-46.81-13.957-95.104-12.315-141.788,1.432c-94.377,27.789-164.568,109.99-181.942,206.182
				c-8.211,45.46-6.427,100.729,20.693,139.833c23.658,34.107,64.631,50.305,104.879,53.648
				c91.63,7.613,186.463-40.597,247.402-106.861c38-41.322,71.276-94.898,73.513-152.442
				C650.925,656.998,627.516,599.557,578.553,588.754z"/>
			<path style="opacity:0.55;fill:#A4B0B7;" d="M578.699,317.667c-24.192,7.509-46.887,22.844-63.305,42.068
				c-9.946,11.646-20.05,26.307-25.12,41.848c-0.716,1.266-1.505,2.467-2.165,3.778c-10.641,21.167-8.254,49.02,11.903,63.572
				c21.092,15.229,49.999,14.43,74.028,7.955c25.932-6.99,48.974-22.247,69.074-39.675c19.447-16.863,41.439-39.844,43.899-66.843
				C692.22,313.207,618.732,305.239,578.699,317.667z"/>
			<path style="opacity:0.55;fill:#A4B0B7;" d="M1187.283,258.974c-58.415-57.619-153.448-27.584-214.528,16.994
				c-32.454,13.66-61.53,34.878-83.728,63.806c-20.622,26.871-31.431,63.118-17.641,95.495c12.65,29.702,42.2,50.2,72.306,59.242
				c71.372,21.436,146.617-10.128,201.423-55.556c28.204-23.376,55.601-53.031,65.957-88.999
				C1220.55,317.036,1211.717,283.077,1187.283,258.974z"/>
			<path style="opacity:0.55;fill:#A4B0B7;" d="M1785.261,435.151c-9.267-24.614-34.828-39.002-58.52-46.739
				c-31.609-10.325-64.691-14.018-97.825-11.227c-34.27,2.883-70.914,11.988-97.393,34.893c-2.615,2.261-4.26,5.78-4.992,9.422
				c-4.032,3.162-7.895,6.468-11.317,10.095c-18.418,19.507-24.028,48.332-4.864,69.425c17.917,19.719,48.379,27.104,73.211,33.021
				c31.48,7.494,64.27,9.46,96.49,6.75c29.759-2.506,60.929-9.682,83.249-30.87C1783.068,491.156,1795.314,461.863,1785.261,435.151
				z"/>
		</g>
	</g>
	<g>
		<path style="fill:#FCC331;stroke:#AD5A1F;stroke-width:8.3267;stroke-miterlimit:10;" d="M1592.209,972.802l444.484-17.545
			l-333.363,339.212h251.484l-333.363,409.393h136.46c0,0-633.58,719.362-633.58,701.817c0-17.545,391.847-590.695,391.847-590.695
			h-239.787l339.211-421.09h-329.758L1592.209,972.802z"/>
		<path style="fill:#FCC331;" d="M1508.932,1160.373c45.831-62.999,91.763-125.95,136.584-189.677l-53.305,2.106l-306.368,421.091
			h58.281C1397.216,1314.779,1452.887,1237.411,1508.932,1160.373z"/>
		<path style="fill:#FCC331;" d="M1301.463,1814.984c3.037-3.331,6.05-6.687,9.087-10.019
			c73.998-81.213,149.892-161.146,220.777-245.105c30.093-35.636,144.588-154.106,175.145-172.217
			c-31.622-0.57-63.214,1.99-94.657,6.251h3.79l-339.213,421.09H1301.463z"/>
		<path style="fill:#FCC331;" d="M1162.306,2369.284c14.295-19.5,28.522-39.052,42.846-58.532
			c37.933-51.591,342.854-485.797,373.162-513.357c-31.792,4.166-63.397,9.858-94.509,17.589h32.375
			c0,0-391.847,573.148-391.847,590.695C1124.333,2408.289,1138.436,2394.495,1162.306,2369.284z"/>
		<path style="fill:#FCC331;" d="M1703.329,1294.469l333.366-339.21l-155.286,6.129c-14.507,17.422-279.537,354.141-290.599,368.821
			c75.369,5.161,151.105,5.737,226.566,7.758c5.631,0.151-265.031,314.445-336.473,395.036
			c53.392-0.831,165.369,11.818,163.461,14.934c-34.945,57.064-247.253,345.725-313.353,436.481
			c184.882-205.77,426.901-480.555,426.901-480.555h-136.459l333.363-409.394H1703.329z"/>
	</g>
</g>
</svg>
